<svg id="enu_native_btn_radio_active" xmlns="http://www.w3.org/2000/svg" width="22" height="22" viewBox="0 0 22 22">
  <path id="Checkbox" d="M11,0A11,11,0,1,1,0,11,11,11,0,0,1,11,0Z"/>
  <path id="Icon" d="M3.82,10.014a.672.672,0,0,0,.592-.328L9.949.967A.8.8,0,0,0,10.1.533.5.5,0,0,0,9.563,0a.522.522,0,0,0-.5.3L3.8,8.684,1.066,5.109a.571.571,0,0,0-.5-.287A.532.532,0,0,0,0,5.373.712.712,0,0,0,.17,5.8L3.211,9.674A.729.729,0,0,0,3.82,10.014Z" transform="translate(5.962 5.93)" fill="#fff" stroke="rgba(0,0,0,0)" stroke-miterlimit="10" stroke-width="1"/>
</svg>
